<svg xmlns="http://www.w3.org/2000/svg" xmlns:xlink="http://www.w3.org/1999/xlink" viewBox="0 0 226.43 250.95"><defs><style>.cls-1,.cls-10,.cls-11,.cls-12,.cls-13,.cls-14,.cls-15,.cls-16,.cls-17,.cls-18,.cls-19,.cls-2,.cls-20,.cls-21,.cls-22,.cls-23,.cls-24,.cls-25,.cls-26,.cls-27,.cls-28,.cls-29,.cls-3,.cls-30,.cls-31,.cls-4,.cls-5,.cls-6,.cls-7,.cls-8,.cls-9{fill-rule:evenodd;}.cls-1{fill:url(#radial-gradient);}.cls-2{fill:#534e4e;}.cls-3{fill:#2c2b2b;}.cls-4{fill:#ccc;}.cls-5{fill:#eaeaea;}.cls-6{fill:#b4b4b4;}.cls-7{fill:#db9561;}.cls-8{fill:#171717;}.cls-9{fill:url(#radial-gradient-2);}.cls-10{fill:url(#linear-gradient);}.cls-11{fill:url(#linear-gradient-2);}.cls-12{fill:#8a492b;}.cls-13{fill:#da925d;}.cls-14{fill:#afafaf;}.cls-15{fill:#c57940;}.cls-16{fill:url(#linear-gradient-3);}.cls-17{fill:#66321a;}.cls-18{fill:#cb7c42;}.cls-19{fill:url(#radial-gradient-3);}.cls-20{fill:#c27842;}.cls-21{fill:url(#radial-gradient-4);}.cls-22{fill:#333;}.cls-23{fill:#cb7c41;}.cls-24{fill:url(#radial-gradient-5);}.cls-25{fill:url(#radial-gradient-6);}.cls-26{fill:url(#radial-gradient-7);}.cls-27{fill:#fff;}.cls-28{fill:#f2d2b7;}.cls-29{fill:#8e4c1d;}.cls-30{fill:#d9905b;}.cls-31{fill:#bf692b;}</style><radialGradient id="radial-gradient" cx="100.03" cy="27668.76" r="100.61" gradientTransform="translate(0 -6178.71) scale(1 0.23)" gradientUnits="userSpaceOnUse"><stop offset="0.29" stop-color="#da9208"/><stop offset="1" stop-color="#fc0"/></radialGradient><radialGradient id="radial-gradient-2" cx="-138.65" cy="-15934.73" r="377.47" gradientTransform="matrix(-1, 0, 0, 1, -342.46, 15982)" gradientUnits="userSpaceOnUse"><stop offset="0.29" stop-color="#db945f"/><stop offset="0.5" stop-color="#e9b27f"/><stop offset="0.73" stop-color="#e9b27f"/><stop offset="0.91" stop-color="#d9905b"/><stop offset="1" stop-color="#eaba8e"/></radialGradient><linearGradient id="linear-gradient" x1="41.96" y1="179.97" x2="98.63" y2="179.97" gradientUnits="userSpaceOnUse"><stop offset="0" stop-color="#555"/><stop offset="1" stop-color="#333"/></linearGradient><linearGradient id="linear-gradient-2" x1="109.7" y1="182.38" x2="173.45" y2="182.38" xlink:href="#linear-gradient"/><linearGradient id="linear-gradient-3" x1="108.84" y1="125.23" x2="104.09" y2="140.08" gradientUnits="userSpaceOnUse"><stop offset="0" stop-color="#fff"/><stop offset="1" stop-color="#bdbdbd"/></linearGradient><radialGradient id="radial-gradient-3" cx="83.15" cy="41.4" r="55.49" gradientUnits="userSpaceOnUse"><stop offset="0" stop-color="#4b4b4b"/><stop offset="1" stop-color="#282828"/></radialGradient><radialGradient id="radial-gradient-4" cx="-3226.73" cy="-172.53" r="29.65" gradientTransform="translate(1754.96 143.82) scale(0.5)" gradientUnits="userSpaceOnUse"><stop offset="0.24" stop-color="#fbfbfb"/><stop offset="0.76" stop-color="#c9c9c9"/><stop offset="1" stop-color="#cecece"/></radialGradient><radialGradient id="radial-gradient-5" cx="129.4" cy="56.25" r="16.65" gradientUnits="userSpaceOnUse"><stop offset="0.24" stop-color="#e8b07d"/><stop offset="0.76" stop-color="#d88c55"/><stop offset="1" stop-color="#e5ad7f"/></radialGradient><radialGradient id="radial-gradient-6" cx="-1224.77" cy="54.97" r="8.96" gradientTransform="translate(2604.55 -48.36) scale(2.04)" xlink:href="#radial-gradient-4"/><radialGradient id="radial-gradient-7" cx="-1603.02" cy="-70.94" r="27.96" gradientTransform="translate(1308.09 116.73) scale(0.75)" xlink:href="#radial-gradient-5"/></defs><g id="Layer_2" data-name="Layer 2"><g id="Layer_1-2" data-name="Layer 1"><path class="cls-1" d="M29.23,211.37q29.34-6.72,70.83-6.73t70.65,6.73q29.35,6.84,29.35,16.43t-29.35,16.37Q141.49,251,100.06,251t-70.83-6.78Q0,237.38,0,227.8T29.23,211.37Z"/><polygon class="cls-2" points="109.7 147.38 128.99 218.63 117.38 218.57 105.3 145.48 109.7 147.38"/><polygon class="cls-3" points="105.3 145.48 117.38 218.57 91.85 218.39 98.63 145.12 105.3 145.48"/><path class="cls-4" d="M46.43,108.63l71.37,24.58L112,146.49l-2.32.89-4.4-1.9-6.67-.36-50.18-6.9Q47.81,123.39,46.43,108.63Zm82.14,32.56L133.81,131l16-31.43q4.89,20.66,8.45,41.49Z"/><path class="cls-5" d="M120.54,126.55l13.27,4.4-11.49-6.72L147.8,91.37c.63,2.38,1.23,4.76,1.78,7.14.08.36.16.7.24,1l-16,31.43-5.24,10.24L112,146.49l5.78-13.28L46.43,108.63c-.2-1.94-.4-3.87-.6-5.77-.08-.64-.14-1.27-.17-1.91Z"/><polygon class="cls-6" points="122.32 124.23 133.81 130.95 120.53 126.55 122.32 124.23"/><path class="cls-7" d="M58.57,221c-.24,1.43-.45,2.72-.65,3.87l-14.05-3.81.3-.47Zm93.81,1.67c-.4-1.39-.77-2.68-1.13-3.87l14.05-3.33c0,.51,0,1,.06,1.54Z"/><polygon class="cls-8" points="98.63 145.12 91.85 218.39 86.73 218.33 98.63 145.12"/><path class="cls-9" d="M147.8,91.37l-25.48,32.86-1.78,2.32L45.66,101a285.79,285.79,0,0,1-1-40A67.05,67.05,0,0,1,58.51,22.44,36.43,36.43,0,0,1,77.38,9.29q22.08-6.67,37.92,11.6a119.73,119.73,0,0,1,22.32,38Q143.52,74.88,147.8,91.37ZM57.92,224.88c-.2,1-.4,1.83-.6,2.62l-17.8-.24,4.35-6.19Zm94.46-2.2,13-5.66.24,3.93a11.1,11.1,0,0,1,3.81,2.44,10,10,0,0,1,2.91,5.72l-18-.24C153.61,226.65,153,224.58,152.38,222.68Z"/><polygon class="cls-10" points="98.63 145.12 86.73 218.33 86.31 221.73 58.57 221.01 44.17 220.6 41.96 220.54 48.45 138.22 98.63 145.12"/><polygon class="cls-11" points="128.99 218.63 109.7 147.38 112.02 146.49 128.57 141.19 158.27 141.01 173.45 213.51 165.3 215.48 151.25 218.81 130.3 223.75 128.99 218.63"/><polygon class="cls-4" points="158.54 120.92 156.37 123.69 152.2 121.64 150 125.42 148.69 116.13 145.83 109.29 150.95 106.01 158.54 120.92"/><path class="cls-12" d="M156.37,123.69l2.17-2.77Q200.21,71.3,222.71,28a18.58,18.58,0,0,1,1.1,10.21,731.39,731.39,0,0,1-61.61,88.33l-.18-.09Zm-24.82,31.55,4.46,3.42-7.91,9.73-5-2.47,6.57-8.36.42.18.89-1.85Zm17.59-12.71-7.29-.39,2.61-3.33,5.45,2.77Z"/><path class="cls-13" d="M139.52,158l-4-1.94L139.43,142l2.42.12,7.29.39,2.88.15,4.53.24-10.3,18.39Zm16.85-34.35,5.65,2.74-8.69,12.23-4.58-1.34,1-2-1.1-.36,2.62-4.58-3.45-1.37,2.14-3.63,2.2-3.78Z"/><path class="cls-14" d="M73,128.6l60.27,22.77-1.58,3.21h.38l-.5.66-.54.65-.89,1.85-.42-.18L73.15,131.25Zm74.88.45-1.76,3,0-14.7-1.67-7.08,1.37-.95,2.86,6.84,1.31,9.29Z"/><path class="cls-15" d="M146.85,135.65,144.94,134l1.16-2,1.76-3,3.45,1.37L148.69,135l1.1.36-1,2Zm8.24,3.28-1.76-.27L162,126.43l.18.09,2.15,1,.53,2.56-7,9.23Zm-21.84,12.44,4.61-9.43,1.57.08-3.92,14.08-3.13-1.52h-.71Z"/><polygon class="cls-16" points="137.86 141.94 133.25 151.37 72.98 128.6 79.05 124.17 139.11 139.35 137.86 141.94"/><path class="cls-17" d="M164.35,127.56l-2.15-1a731.39,731.39,0,0,0,61.61-88.33A18.58,18.58,0,0,0,222.71,28L224,25.54a19.08,19.08,0,0,1,2.44,8.21,16.9,16.9,0,0,1-.42,4.79Q201.91,81.22,164.35,127.56Zm-9.26,11.37-3,3.72,0,0-2.88-.15.77-.95-5.45-2.77,2.39-3.16,1.9,1.67,4.58,1.34Zm-27,29.46,7.91-9.73-4.46-3.42.5-.66h.33l3.13,1.52,4,1.94-9.31,11.42Z"/><polygon class="cls-18" points="115.71 28.63 100.36 24.46 104.52 29.7 82.62 21.37 77.2 37.68 73.87 32.74 63.63 50.77 60.48 45.06 56.07 72.14 48.27 63.33 48.27 85.42 40.66 70.36 56.16 15.77 62.86 11.19 79.73 8.87 118.57 22.92 107.14 22.92 115.71 28.63"/><polygon class="cls-19" points="79.76 5.95 88.63 0 88.63 5.95 121.01 9.4 116.49 12.98 130.3 20.3 105.06 20.3 113.63 26.01 98.27 21.85 102.44 27.08 80.54 18.75 75.12 35.06 71.79 30.12 61.55 48.16 58.39 42.44 53.99 69.52 46.19 60.71 46.19 82.8 38.57 67.74 42.2 36.97 36.01 36.97 46.43 24.46 37.56 24.46 60.77 8.57 79.76 5.95"/><path class="cls-20" d="M123.94,53a9.69,9.69,0,0,1,1.73.15L128.36,70a9.07,9.07,0,0,1-13.48-7.93A9,9,0,0,1,123.94,53Z"/><path class="cls-21" d="M138.36,57.9a11.89,11.89,0,1,1-20.29-8.4,11.89,11.89,0,0,1,20.29,8.4Z"/><path class="cls-20" d="M111.32,68.48A14.54,14.54,0,0,1,86.5,78.76a14.53,14.53,0,0,1,0-20.56,14.54,14.54,0,0,1,24.82,10.28Z"/><path class="cls-22" d="M133.78,57.73a3.07,3.07,0,0,1,0-3.7,1.83,1.83,0,0,1,3,0,3.07,3.07,0,0,1,0,3.7,1.83,1.83,0,0,1-3,0Z"/><path class="cls-23" d="M137.56,52.2,137,53l-1,.18c-1.35.27-2.68.61-4,1-1.62.51-3.23,1.11-4.82,1.78s-3.13,1.51-4.64,2.38a32.42,32.42,0,0,0-3.1,2c-.35.2-.67.39-.95.59a29.23,29.23,0,0,0-2.44,2h-.95Q117,61.14,119,59.58A44,44,0,0,1,137.56,52.2Z"/><path class="cls-24" d="M137.56,52.2A44,44,0,0,0,119,59.58q-2,1.56-3.87,3.28a12,12,0,0,1-1.07-5.06,11.26,11.26,0,0,1,.71-4,11.57,11.57,0,0,1,2.92-4.7,12.43,12.43,0,0,1,17.56,0A14.51,14.51,0,0,1,137.56,52.2Z"/><path class="cls-25" d="M108.79,55a14.53,14.53,0,0,1,0,20.56,14.08,14.08,0,0,1-10.34,4.26A14.35,14.35,0,0,1,88.1,75.57,14.86,14.86,0,0,1,88.1,55a14.35,14.35,0,0,1,10.35-4.26A14.08,14.08,0,0,1,108.79,55Z"/><path class="cls-22" d="M108.51,66.1a3.82,3.82,0,0,1,0-4.57,2.26,2.26,0,0,1,3.67,0,3.82,3.82,0,0,1,0,4.57,2.26,2.26,0,0,1-3.67,0Z"/><path class="cls-26" d="M112.48,58.3q-17.55,3-28.27,13.43h0a15.37,15.37,0,0,1-1.32-6.4,15.64,15.64,0,0,1,26.68-11.06,16,16,0,0,1,3,4Z"/><path class="cls-23" d="M112.48,58.3l-.56.92c-.25,0-.7.12-1.34.25a44.73,44.73,0,0,0-5,1.25A65.39,65.39,0,0,0,99.43,63c-2,.93-4,1.94-5.86,3Q91,67.52,88.51,69.23a29.86,29.86,0,0,0-3.09,2.5H84.21Q94.92,61.24,112.48,58.3Z"/><path class="cls-27" d="M127.14,46.07a.65.65,0,0,1,.48.18.8.8,0,0,1,.18.48.55.55,0,0,1-.18.41.65.65,0,0,1-.48.18h-.83a.8.8,0,0,1-.48-.18.54.54,0,0,1-.17-.41.78.78,0,0,1,.17-.48.8.8,0,0,1,.48-.18Zm-24.76,6.25a.7.7,0,0,1-.47.06c-.48-.12-1-.22-1.43-.3a.66.66,0,0,1-.42-.23.55.55,0,0,1-.12-.48.62.62,0,0,1,.24-.42.5.5,0,0,1,.48-.12,13,13,0,0,1,1.6.36.48.48,0,0,1,.36.24.64.64,0,0,1-.24.89Z"/><path class="cls-28" d="M131.07,47H131a6.88,6.88,0,0,1,1.61.84l.48.36a.61.61,0,0,1,.23.41.55.55,0,0,1-.12.48.53.53,0,0,1-.35.24.65.65,0,0,1-.54-.12,3,3,0,0,1-.41-.36,8.49,8.49,0,0,0-1.37-.71.92.92,0,0,0-.36-.12.76.76,0,0,1-.42-.3q-.18-.3-.06-.48c0-.16.1-.27.3-.35a.43.43,0,0,1,.48-.06A4.83,4.83,0,0,1,131.07,47ZM109.88,57.68a.54.54,0,0,1-.47.12.58.58,0,0,1-.36-.24,13.32,13.32,0,0,0-4.65-4.23.56.56,0,0,1-.29-.41.4.4,0,0,1,0-.42.54.54,0,0,1,.35-.3.64.64,0,0,1,.54,0,13.14,13.14,0,0,1,5,4.65.48.48,0,0,1,.18.47A.54.54,0,0,1,109.88,57.68Z"/><path class="cls-29" d="M128.48,96l.09-.06L134.82,93l-3.51-3.16a.35.35,0,0,1-.12-.24.36.36,0,0,1,0-.29l1.67-3.58-4.53-1.36-.41-.12a.68.68,0,0,1-.24-.24.4.4,0,0,1-.06-.36.36.36,0,0,1,.24-.24.3.3,0,0,1,.3-.06l5.47,1.67a.65.65,0,0,1,.24.12l.12.24a.53.53,0,0,1-.06.24l-1.79,3.75L136,92.8a.39.39,0,0,1,.18.24.62.62,0,0,1-.06.29.94.94,0,0,1-.24.18l-6.9,3.22a.55.55,0,0,1-.36,0,.36.36,0,0,1-.24-.24.39.39,0,0,1,0-.3A.42.42,0,0,1,128.48,96Z"/><path class="cls-30" d="M128.48,96A5.8,5.8,0,0,1,126,92.23a7.39,7.39,0,0,1,.54-4.79,11.69,11.69,0,0,1,1.78-3l4.53,1.36-1.67,3.58a.36.36,0,0,0,0,.29.35.35,0,0,0,.12.24L134.82,93l-6.25,2.85Z"/><path class="cls-30" d="M97.08,86a5.94,5.94,0,0,1-1.48,9.82A10.28,10.28,0,0,1,89,96.91a10,10,0,0,1-6-3,6.11,6.11,0,0,1,1.48-9.82A10.28,10.28,0,0,1,91.07,83,10,10,0,0,1,97.08,86Z"/><path class="cls-22" d="M79.64,57.44,73.13,55q-.76-9.73,6.31-15.83T100,36.58l-.57,5.59a21.21,21.21,0,0,0-14.16,3.9A13,13,0,0,0,79.64,57.44Zm48.63-21.13c-1.08-1.3-3.15-1.94-6.22-1.9s-5.37,1.91-6.93,5.65l-3.51-4.94q1.06-4.23,6-6.37,5.84-2.62,11.73,2.68Z"/><path class="cls-31" d="M88.09,92.68a1,1,0,0,1-.77-.3,1.13,1.13,0,0,1-.36-.83,1,1,0,0,1,.36-.78,1,1,0,0,1,.77-.35.93.93,0,0,1,.72.35,1.06,1.06,0,0,1,.3.78,1.25,1.25,0,0,1-.3.83A1,1,0,0,1,88.09,92.68Zm5.72-1.31a1.31,1.31,0,0,1-.89-.3,1.13,1.13,0,0,1-.36-.83,1,1,0,0,1,.36-.78,1.21,1.21,0,0,1,.89-.35,1.23,1.23,0,0,1,.89.35,1,1,0,0,1,.36.78,1.13,1.13,0,0,1-.36.83A1.33,1.33,0,0,1,93.81,91.37Zm-4.29-6.13a1,1,0,0,1,.36.77,1.15,1.15,0,0,1-.36.84,1.36,1.36,0,0,1-.89.29,1.38,1.38,0,0,1-.89-.29,1.08,1.08,0,0,1-.42-.84.9.9,0,0,1,.42-.77,1.2,1.2,0,0,1,.89-.36A1.18,1.18,0,0,1,89.52,85.24Z"/></g></g></svg>